<svg xmlns="http://www.w3.org/2000/svg" viewBox="0 0 54 54"><defs><style>.cls-1{fill:#efe6dd;}.cls-2{fill:none;stroke:#c0a686;stroke-linecap:round;stroke-linejoin:round;stroke-width:2px;}</style></defs><title>Aged cheese</title><g id="Layer_2" data-name="Layer 2"><g id="Layer_1-2" data-name="Layer 1"><circle class="cls-1" cx="27" cy="27" r="27"/><path class="cls-2" d="M42,28V16a4,4,0,0,0-4-4H36a4,4,0,0,1-8,0H16a4,4,0,0,0-4,4v2a4,4,0,0,1,0,8V38a4,4,0,0,0,4,4H38a4,4,0,0,0,4-4V36a4,4,0,0,1,0-8Z"/><circle class="cls-2" cx="32" cy="32" r="2"/><circle class="cls-2" cx="26" cy="24" r="2"/><circle class="cls-2" cx="20" cy="34" r="4"/></g></g></svg>