<svg xmlns="http://www.w3.org/2000/svg" viewBox="0 0 54 54"><defs><style>.cls-1{fill:#efe6dd;}.cls-2{fill:none;stroke:#c0a686;stroke-linecap:round;stroke-linejoin:round;stroke-width:2px;}.cls-3{fill:#c0a686;}</style></defs><title>Lamb</title><g id="Layer_2" data-name="Layer 2"><g id="Layer_1-2" data-name="Layer 1"><circle class="cls-1" cx="27" cy="27" r="27"/><path class="cls-2" d="M34.78,20.1A16.06,16.06,0,0,1,38,30c0,7.73-4.92,12-11,12S16,37.73,16,30a16.11,16.11,0,0,1,3.21-9.89"/><circle class="cls-3" cx="22" cy="29" r="2"/><circle class="cls-3" cx="32" cy="29" r="2"/><line class="cls-2" x1="27" y1="41" x2="27" y2="37"/><polyline class="cls-2" points="25 35 27 37 29 35"/><path class="cls-2" d="M32,16a2.89,2.89,0,0,0-1,.19c0-.06,0-.13,0-.19a4,4,0,0,0-8,0c0,.06,0,.13,0,.19A2.89,2.89,0,0,0,22,16a3,3,0,1,0,2.19,5,3,3,0,0,0,5.62,0A3,3,0,1,0,32,16Z"/><path class="cls-2" d="M35,19.48h7a5.22,5.22,0,0,1-4.75,5.44"/><path class="cls-2" d="M19,19.48H12a5.22,5.22,0,0,0,4.75,5.44"/></g></g></svg>