<svg xmlns="http://www.w3.org/2000/svg" viewBox="0 0 54 54"><defs><style>.cls-1{fill:#efe6dd;}.cls-2,.cls-4{fill:none;stroke:#c0a686;stroke-linecap:round;stroke-linejoin:round;}.cls-2{stroke-width:2px;}.cls-3{fill:#c0a686;}.cls-4{stroke-width:2.12px;}</style></defs><title>Beef</title><g id="Layer_2" data-name="Layer 2"><g id="Layer_1-2" data-name="Layer 1"><circle class="cls-1" cx="27" cy="27" r="27"/><path class="cls-2" d="M20.25,39.19c-2.59-2-4.25-5.32-4.25-9.81a16.09,16.09,0,0,1,3.21-9.89"/><path class="cls-2" d="M34.78,19.48A16.06,16.06,0,0,1,38,29.38c0,4.53-1.7,7.88-4.33,9.87"/><circle class="cls-3" cx="22" cy="27.38" r="2"/><circle class="cls-3" cx="32" cy="27.38" r="2"/><path class="cls-2" d="M35,18.85h7a5.22,5.22,0,0,1-4.75,5.44"/><path class="cls-2" d="M19,18.85H12a5.22,5.22,0,0,0,4.75,5.44"/><path class="cls-2" d="M26.75,20.5c11,0,11-8,11-8a16.33,16.33,0,0,1-11,4,16.33,16.33,0,0,1-11-4S15.75,20.5,26.75,20.5Z"/><ellipse class="cls-4" cx="27" cy="38.5" rx="6.75" ry="5"/><ellipse class="cls-3" cx="25" cy="38.5" rx="1" ry="2"/><ellipse class="cls-3" cx="29" cy="38.5" rx="1" ry="2"/></g></g></svg>