<svg xmlns="http://www.w3.org/2000/svg" viewBox="0 0 54 54"><defs><style>.cls-1{fill:#efe6dd;}.cls-2{fill:#c0a686;}.cls-3{fill:none;stroke:#c0a686;stroke-linecap:round;stroke-linejoin:round;stroke-width:2px;}</style></defs><title>Chicken</title><g id="Layer_2" data-name="Layer 2"><g id="Layer_1-2" data-name="Layer 1"><circle class="cls-1" cx="27" cy="27" r="27"/><circle class="cls-2" cx="26.59" cy="25.11" r="2"/><path class="cls-3" d="M25.59,18.11c-4.85,1.21-7.93,6.71-10,15-2,8,4,9,9,9s8-1,8-7C32.59,26.11,33.59,16.11,25.59,18.11Z"/><path class="cls-3" d="M32.59,23.11s8,1,8,6h-8v6.83c0,4.17,7,3.83,7,0s-7-6.83-7-6.83"/><path class="cls-3" d="M31.47,20.56a28.91,28.91,0,0,0,3.12-2.45c2-2,1-7-4-6,0,0-3-5-7,0,0,0-5-2-6,4,0,0-5.21.15-4,5a6.89,6.89,0,0,0,4,5"/></g></g></svg>