<svg xmlns="http://www.w3.org/2000/svg" viewBox="0 0 54 54"><defs><style>.cls-1{fill:#efe6dd;}.cls-2{fill:none;stroke:#c0a686;stroke-linecap:round;stroke-linejoin:round;stroke-width:2px;}</style></defs><title>Seafood</title><g id="Layer_2" data-name="Layer 2"><g id="Layer_1-2" data-name="Layer 1"><circle class="cls-1" cx="27" cy="27" r="27"/><path class="cls-2" d="M38,18.11l-6-1a5,5,0,1,0,5-5Z"/><path class="cls-2" d="M16,18.11l6-1a5,5,0,1,1-5-5Z"/><ellipse class="cls-2" cx="27" cy="32.89" rx="12.69" ry="7"/><path class="cls-2" d="M16,41.89a4,4,0,0,1,4-4"/><path class="cls-2" d="M38,41.89a4,4,0,0,0-4-4"/><line class="cls-2" x1="22" y1="31.89" x2="24" y2="35.89"/><line class="cls-2" x1="32" y1="31.89" x2="30" y2="35.89"/><path class="cls-2" d="M19,28.89a6,6,0,0,1-6-6,5.93,5.93,0,0,1,.45-2.27"/><path class="cls-2" d="M35,28.89a6,6,0,0,0,6-6,6.12,6.12,0,0,0-.44-2.27"/></g></g></svg>