<svg width="120" height="120" viewBox="0 0 120 120" fill="none" xmlns="http://www.w3.org/2000/svg">
<path d="M37.9601 80.4348V47.8557H30.4287V39.507H48.3526V80.4348H37.9601Z" fill="#C0A686"/>
<path d="M87.4104 50.0742C87.4104 53.6356 85.4838 56.7883 82.2727 58.5401C86.7678 60.408 89.5706 64.32 89.5706 68.8739C89.5706 76.2301 83.0313 80.9011 72.8143 80.9011C62.597 80.9011 56.0581 76.2885 56.0581 69.0494C56.0581 64.3784 59.094 60.408 63.823 58.5401C60.3784 56.6131 58.1599 53.344 58.1599 49.7827C58.1599 43.2431 63.8818 39.0983 72.7559 39.0983C81.7469 39.0983 87.4104 43.3602 87.4104 50.0742ZM65.8664 67.9985C65.8664 71.4434 68.3189 73.3701 72.8143 73.3701C77.3098 73.3701 79.8203 71.5022 79.8203 67.9985C79.8203 64.6126 77.3098 62.6853 72.8143 62.6853C68.3185 62.6853 65.8664 64.6123 65.8664 67.9985ZM66.9177 50.6581C66.9177 53.5779 69.0194 55.2119 72.8143 55.2119C76.6092 55.2119 78.711 53.5776 78.711 50.6581C78.711 47.6229 76.6092 45.9294 72.8143 45.9294C69.0191 45.9294 66.9177 47.6229 66.9177 50.6581Z" fill="#C0A686"/>
<path d="M106.864 44.1272C108.591 49.2265 109.468 54.5602 109.468 60C109.468 87.2764 87.2764 109.468 59.9996 109.468C32.7228 109.468 10.5312 87.2764 10.5312 60C10.5312 32.7228 32.7225 10.5323 59.9993 10.5323C65.4398 10.5323 70.7734 11.408 75.8721 13.1365V2.12805C70.722 0.716284 65.403 0 59.9996 0C26.9159 0 0 26.9159 0 60C0 93.0841 26.9159 120 59.9996 120C93.0833 120 119.999 93.0841 119.999 60C119.999 54.597 119.283 49.2776 117.871 44.1272H106.864Z" fill="#C0A686"/>
<path d="M103.869 16.0958V4.59106H95.5966V16.0958H84.1609V24.3679H95.5966V35.8722H103.869V24.3679H115.373V16.0958H103.869Z" fill="#C0A686"/>
</svg>
